<svg width="16" height="16" viewBox="0 0 16 16" fill="none" xmlns="http://www.w3.org/2000/svg">
<circle opacity="0.4" cx="7.99992" cy="7.99998" r="6.66667" fill="#9FA6FB"/>
<path d="M8.66659 4.66667C8.66659 5.03486 8.36811 5.33333 7.99992 5.33333C7.63173 5.33333 7.33325 5.03486 7.33325 4.66667C7.33325 4.29848 7.63173 4 7.99992 4C8.36811 4 8.66659 4.29848 8.66659 4.66667Z" fill="#9FA6FB"/>
<path fill-rule="evenodd" clip-rule="evenodd" d="M6.83325 6.66663C6.83325 6.39048 7.05711 6.16663 7.33325 6.16663H7.99992C8.27606 6.16663 8.49992 6.39048 8.49992 6.66663V11.3333C8.49992 11.6094 8.27606 11.8333 7.99992 11.8333C7.72378 11.8333 7.49992 11.6094 7.49992 11.3333V7.16663H7.33325C7.05711 7.16663 6.83325 6.94277 6.83325 6.66663Z" fill="#9FA6FB"/>
</svg>
